<?xml version="1.0" encoding="iso-8859-1"?>
<!-- Generator: Adobe Illustrator 19.0.0, SVG Export Plug-In . SVG Version: 6.00 Build 0)  -->
<svg version="1.1" id="Capa_1" xmlns="http://www.w3.org/2000/svg" xmlns:xlink="http://www.w3.org/1999/xlink" x="0px" y="0px"
	 viewBox="0 0 368 368" style="enable-background:new 0 0 368 368;" xml:space="preserve">
<g>
	<g>
		<g>
			<path stroke="#75797C" stroke-width="5" d="M248,112c-13.232,0-24,10.768-24,24s10.768,24,24,24s24-10.768,24-24S261.232,112,248,112z M248,144
				c-4.416,0-8-3.592-8-8s3.584-8,8-8c4.416,0,8,3.592,8,8S252.416,144,248,144z"/>
			<path stroke="#75797C" stroke-width="5" d="M120,160c13.232,0,24-10.768,24-24s-10.768-24-24-24s-24,10.768-24,24S106.768,160,120,160z M120,128
				c4.416,0,8,3.592,8,8s-3.584,8-8,8s-8-3.592-8-8S115.584,128,120,128z"/>
			<path stroke="#75797C" stroke-width="5" d="M184,0C82.536,0,0,82.544,0,184s82.536,184,184,184s184-82.544,184-184S285.464,0,184,0z M184,352
				c-92.632,0-168-75.36-168-168S91.368,16,184,16s168,75.36,168,168S276.632,352,184,352z"/>
			<path stroke="#75797C" stroke-width="5" d="M264,208H104c-4.424,0-8,3.584-8,8c0,48.52,39.48,88,88,88s88-39.48,88-88C272,211.584,268.424,208,264,208z M184,288
				c-37,0-67.56-28.048-71.552-64h143.104C251.56,259.952,221,288,184,288z"/>
		</g>
	</g>
</g>
<g>
</g>
<g>
</g>
<g>
</g>
<g>
</g>
<g>
</g>
<g>
</g>
<g>
</g>
<g>
</g>
<g>
</g>
<g>
</g>
<g>
</g>
<g>
</g>
<g>
</g>
<g>
</g>
<g>
</g>
</svg>
